<svg preserveAspectRatio="xMidYMid meet" data-bbox="19.996 20.002 159.984 159.999" xmlns="http://www.w3.org/2000/svg" width="200" height="200" viewBox="19.996 20.002 159.984 159.999" data-type="color" role="presentation" aria-hidden="true" aria-label="">
    <g>
        <path fill="#262223" d="M99.986 180c-1 0-1.925-.533-2.425-1.401l-17.526-30.348-33.894 9.082a2.799 2.799 0 01-3.429-3.431l9.08-33.9-30.396-17.553a2.801 2.801 0 010-4.851l30.391-17.546-9.08-33.908a2.794 2.794 0 01.723-2.706 2.805 2.805 0 012.706-.724l33.894 9.083L97.582 21.4a2.8 2.8 0 014.848 0l17.576 30.438 33.865-9.078a2.804 2.804 0 012.707.725c.708.708.984 1.738.722 2.706l-9.08 33.902 30.361 17.525a2.803 2.803 0 010 4.852l-30.391 17.552 9.075 33.863a2.795 2.795 0 01-.722 2.706 2.796 2.796 0 01-2.707.725l-33.899-9.079-17.526 30.363c-.5.865-1.42 1.4-2.425 1.4zm-18.6-37.813c.985 0 1.92.52 2.43 1.401l16.17 28.01 16.175-28.023a2.794 2.794 0 013.147-1.305l31.292 8.382-8.377-31.254a2.803 2.803 0 011.306-3.15l28.05-16.202-28.021-16.176a2.801 2.801 0 01-1.306-3.15l8.382-31.292-31.257 8.378a2.79 2.79 0 01-3.147-1.304l-16.225-28.099-16.2 28.059a2.795 2.795 0 01-3.147 1.304l-31.287-8.384 8.382 31.297a2.804 2.804 0 01-1.306 3.151l-28.05 16.197 28.056 16.201a2.801 2.801 0 011.306 3.15l-8.382 31.291 31.287-8.384c.242-.066.485-.098.722-.098zm18.605-75.045c-18.12 0-32.855 14.74-32.855 32.858 0 18.118 14.735 32.857 32.855 32.857 18.115 0 32.85-14.739 32.85-32.857s-14.735-32.858-32.85-32.858zm0 71.318c-21.207 0-38.456-17.254-38.456-38.46 0-21.207 17.249-38.459 38.456-38.459 21.203 0 38.452 17.252 38.452 38.459 0 21.206-17.249 38.46-38.452 38.46z" data-color="1"></path>
    </g>
</svg>